<svg xmlns="http://www.w3.org/2000/svg" width="12.454" height="12.454" viewBox="0 0 12.454 12.454">
  <path id="Fill_4" data-name="Fill 4" d="M11.182,11.454a.273.273,0,0,1-.273-.273,5.182,5.182,0,0,0-10.364,0,.273.273,0,1,1-.545,0A5.724,5.724,0,0,1,4.3,5.64a3,3,0,1,1,2.845,0,5.725,5.725,0,0,1,4.3,5.541A.273.273,0,0,1,11.182,11.454ZM5.728.545A2.455,2.455,0,1,0,8.182,3,2.458,2.458,0,0,0,5.728.545Z" transform="translate(0.5 0.5)" fill="#753eca" stroke="#753eca" stroke-miterlimit="10" stroke-width="1"/>
</svg>
