<svg id="Group_8" data-name="Group 8" xmlns="http://www.w3.org/2000/svg" width="43.725" height="44.359" viewBox="0 0 43.725 44.359">
  <path id="Fill_4" data-name="Fill 4" d="M11,22A11,11,0,1,1,22,11,11.012,11.012,0,0,1,11,22ZM11,2a9,9,0,1,0,9,9A9.01,9.01,0,0,0,11,2Z" transform="translate(21.725 22.359)" fill="#c7c7c7"/>
  <path id="Fill_6" data-name="Fill 6" d="M11,5H7V1A1,1,0,0,0,5,1V5H1A1,1,0,0,0,1,7H5v4a1,1,0,0,0,2,0V7h4a1,1,0,0,0,0-2Z" transform="translate(27 27)" fill="#c7c7c7"/>
  <path id="Fill_7" data-name="Fill 7" d="M1,36a1,1,0,0,1-1-1A18.744,18.744,0,0,1,4.055,23.3a19.08,19.08,0,0,1,10.189-6.67,9,9,0,1,1,9.527-.01,18.89,18.89,0,0,1,5.3,2.266,1,1,0,1,1-1.062,1.695A17,17,0,0,0,2,35,1,1,0,0,1,1,36ZM19,2a7,7,0,1,0,7,7A7.008,7.008,0,0,0,19,2Z" fill="#c7c7c7"/>
</svg>
